<mxfile host="app.diagrams.net" modified="2024-05-21T16:44:31.297Z" agent="Mozilla/5.0 (Macintosh; Intel Mac OS X 10_15_7) AppleWebKit/537.36 (KHTML, like Gecko) Chrome/124.0.0.0 Safari/537.36" etag="nMnAxAgfhKuC1Y8yJ7QF" version="24.3.1" type="github">
  <diagram name="Page-1" id="10a91c8b-09ff-31b1-d368-03940ed4cc9e">
    <mxGraphModel dx="2074" dy="1971" grid="1" gridSize="10" guides="1" tooltips="1" connect="1" arrows="1" fold="1" page="1" pageScale="1" pageWidth="1100" pageHeight="850" background="none" math="0" shadow="0">
      <root>
        <mxCell id="0" />
        <mxCell id="1" parent="0" />
        <mxCell id="62893188c0fa7362-1" value="A" style="whiteSpace=wrap;html=1;rounded=1;shadow=1;labelBackgroundColor=none;strokeWidth=1;fontFamily=Verdana;fontSize=12;align=center;fillColor=#f8cecc;strokeColor=#b85450;" parent="1" vertex="1">
          <mxGeometry x="620" y="50" width="120" height="60" as="geometry" />
        </mxCell>
        <mxCell id="62893188c0fa7362-2" value="&lt;span&gt;B&lt;/span&gt;" style="whiteSpace=wrap;html=1;rounded=1;shadow=1;labelBackgroundColor=none;strokeWidth=1;fontFamily=Verdana;fontSize=12;align=center;fillColor=#f8cecc;strokeColor=#b85450;" parent="1" vertex="1">
          <mxGeometry x="430" y="170" width="120" height="60" as="geometry" />
        </mxCell>
        <mxCell id="62893188c0fa7362-3" value="&lt;span&gt;G&lt;/span&gt;" style="whiteSpace=wrap;html=1;rounded=1;shadow=1;labelBackgroundColor=none;strokeWidth=1;fontFamily=Verdana;fontSize=12;align=center;" parent="1" vertex="1">
          <mxGeometry x="780" y="170" width="120" height="60" as="geometry" />
        </mxCell>
        <mxCell id="62893188c0fa7362-4" value="" style="rounded=0;html=1;labelBackgroundColor=none;startArrow=none;startFill=0;startSize=5;endArrow=none;endFill=0;endSize=5;jettySize=auto;orthogonalLoop=1;strokeWidth=1;fontFamily=Verdana;fontSize=12" parent="1" source="62893188c0fa7362-1" target="62893188c0fa7362-3" edge="1">
          <mxGeometry x="-0.3002" y="13" relative="1" as="geometry">
            <mxPoint as="offset" />
          </mxGeometry>
        </mxCell>
        <mxCell id="62893188c0fa7362-5" value="" style="rounded=0;html=1;labelBackgroundColor=none;startArrow=none;startFill=0;startSize=5;endArrow=none;endFill=0;endSize=5;jettySize=auto;orthogonalLoop=1;strokeWidth=1;fontFamily=Verdana;fontSize=12" parent="1" source="62893188c0fa7362-1" target="62893188c0fa7362-2" edge="1">
          <mxGeometry x="-0.359" y="-11" relative="1" as="geometry">
            <mxPoint as="offset" />
          </mxGeometry>
        </mxCell>
        <mxCell id="62893188c0fa7362-8" value="C" style="whiteSpace=wrap;html=1;rounded=1;shadow=1;labelBackgroundColor=none;strokeWidth=1;fontFamily=Verdana;fontSize=12;align=center;fillColor=#f8cecc;strokeColor=#b85450;" parent="1" vertex="1">
          <mxGeometry x="320" y="280" width="120" height="60" as="geometry" />
        </mxCell>
        <mxCell id="62893188c0fa7362-9" value="&lt;span&gt;D&lt;/span&gt;" style="whiteSpace=wrap;html=1;rounded=1;shadow=1;labelBackgroundColor=none;strokeWidth=1;fontFamily=Verdana;fontSize=12;align=center;" parent="1" vertex="1">
          <mxGeometry x="540" y="280" width="120" height="60" as="geometry" />
        </mxCell>
        <mxCell id="62893188c0fa7362-10" value="&lt;span&gt;H&lt;/span&gt;" style="whiteSpace=wrap;html=1;rounded=0;shadow=1;labelBackgroundColor=none;strokeWidth=2;fontFamily=Verdana;fontSize=12;align=center;" parent="1" vertex="1">
          <mxGeometry x="690" y="280" width="120" height="60" as="geometry" />
        </mxCell>
        <mxCell id="62893188c0fa7362-11" value="&lt;span&gt;I&lt;/span&gt;" style="whiteSpace=wrap;html=1;rounded=0;shadow=1;labelBackgroundColor=none;strokeWidth=2;fontFamily=Verdana;fontSize=12;align=center;" parent="1" vertex="1">
          <mxGeometry x="880" y="280" width="120" height="60" as="geometry" />
        </mxCell>
        <mxCell id="62893188c0fa7362-12" value="&lt;span&gt;E&lt;/span&gt;" style="whiteSpace=wrap;html=1;rounded=1;shadow=1;labelBackgroundColor=none;strokeWidth=1;fontFamily=Verdana;fontSize=12;align=center;fillColor=#f8cecc;strokeColor=#b85450;" parent="1" vertex="1">
          <mxGeometry x="160" y="395" width="120" height="60" as="geometry" />
        </mxCell>
        <mxCell id="62893188c0fa7362-13" value="&lt;span&gt;F&lt;/span&gt;" style="whiteSpace=wrap;html=1;rounded=1;shadow=1;labelBackgroundColor=none;strokeWidth=1;fontFamily=Verdana;fontSize=12;align=center;fillColor=#d5e8d4;strokeColor=#82b366;" parent="1" vertex="1">
          <mxGeometry x="280" y="520" width="120" height="60" as="geometry" />
        </mxCell>
        <mxCell id="62893188c0fa7362-14" value="" style="rounded=0;html=1;labelBackgroundColor=none;startArrow=none;startFill=0;startSize=5;endArrow=none;endFill=0;endSize=5;jettySize=auto;orthogonalLoop=1;strokeWidth=1;fontFamily=Verdana;fontSize=12" parent="1" source="62893188c0fa7362-2" target="62893188c0fa7362-8" edge="1">
          <mxGeometry x="-0.2" y="-14" relative="1" as="geometry">
            <mxPoint as="offset" />
          </mxGeometry>
        </mxCell>
        <mxCell id="62893188c0fa7362-15" value="" style="rounded=0;html=1;labelBackgroundColor=none;startArrow=none;startFill=0;startSize=5;endArrow=none;endFill=0;endSize=5;jettySize=auto;orthogonalLoop=1;strokeWidth=1;fontFamily=Verdana;fontSize=12" parent="1" source="62893188c0fa7362-2" target="62893188c0fa7362-9" edge="1">
          <mxGeometry x="-0.2" y="14" relative="1" as="geometry">
            <mxPoint as="offset" />
          </mxGeometry>
        </mxCell>
        <mxCell id="62893188c0fa7362-16" value="" style="rounded=0;html=1;labelBackgroundColor=none;startArrow=none;startFill=0;startSize=5;endArrow=none;endFill=0;endSize=5;jettySize=auto;orthogonalLoop=1;strokeWidth=1;fontFamily=Verdana;fontSize=12" parent="1" source="62893188c0fa7362-3" target="62893188c0fa7362-10" edge="1">
          <mxGeometry x="-0.2614" y="-13" relative="1" as="geometry">
            <mxPoint as="offset" />
          </mxGeometry>
        </mxCell>
        <mxCell id="62893188c0fa7362-17" value="" style="rounded=0;html=1;labelBackgroundColor=none;startArrow=none;startFill=0;startSize=5;endArrow=none;endFill=0;endSize=5;jettySize=auto;orthogonalLoop=1;strokeWidth=1;fontFamily=Verdana;fontSize=12" parent="1" source="62893188c0fa7362-3" target="62893188c0fa7362-11" edge="1">
          <mxGeometry x="-0.1294" y="17" relative="1" as="geometry">
            <mxPoint as="offset" />
          </mxGeometry>
        </mxCell>
        <mxCell id="62893188c0fa7362-18" value="" style="rounded=0;html=1;labelBackgroundColor=none;startArrow=none;startFill=0;startSize=5;endArrow=none;endFill=0;endSize=5;jettySize=auto;orthogonalLoop=1;strokeWidth=1;fontFamily=Verdana;fontSize=12" parent="1" source="62893188c0fa7362-8" target="62893188c0fa7362-12" edge="1">
          <mxGeometry x="-0.2168" y="-14" relative="1" as="geometry">
            <mxPoint as="offset" />
          </mxGeometry>
        </mxCell>
        <mxCell id="62893188c0fa7362-19" value="" style="rounded=0;html=1;labelBackgroundColor=none;startArrow=none;startFill=0;startSize=5;endArrow=none;endFill=0;endSize=5;jettySize=auto;orthogonalLoop=1;strokeWidth=1;fontFamily=Verdana;fontSize=12;exitX=0.75;exitY=1;exitDx=0;exitDy=0;dashed=1;" parent="1" source="62893188c0fa7362-12" target="62893188c0fa7362-13" edge="1">
          <mxGeometry x="-0.2842" y="12" relative="1" as="geometry">
            <mxPoint as="offset" />
          </mxGeometry>
        </mxCell>
        <mxCell id="UdQqgkTy1JXmJy_V9cbN-1" value="&lt;pre style=&quot;background-color:#2b2b2b;color:#a9b7c6;font-family:&#39;JetBrains Mono&#39;,monospace;font-size:9.8pt;&quot;&gt;&lt;pre style=&quot;font-family: &amp;quot;JetBrains Mono&amp;quot;, monospace; font-size: 9.8pt;&quot;&gt;&lt;span style=&quot;color:#cc7832;&quot;&gt;func &lt;/span&gt;&lt;span style=&quot;color:#ffc66d;&quot;&gt;PostOrderByStack&lt;/span&gt;&lt;span style=&quot;color:#e8ba36;&quot;&gt;(&lt;/span&gt;root *&lt;span style=&quot;color:#6fafbd;&quot;&gt;TreeNode&lt;/span&gt;&lt;span style=&quot;color:#e8ba36;&quot;&gt;) []&lt;/span&gt;&lt;span style=&quot;color:#cc7832;&quot;&gt;int &lt;/span&gt;&lt;span style=&quot;color:#e8ba36;&quot;&gt;{&lt;br&gt;&lt;/span&gt;&lt;span style=&quot;color:#e8ba36;&quot;&gt;   &lt;/span&gt;st := &lt;span style=&quot;color:#afbf7e;&quot;&gt;stack&lt;/span&gt;.&lt;span style=&quot;color:#b09d79;&quot;&gt;NewStack&lt;/span&gt;&lt;span style=&quot;color:#e8ba36;&quot;&gt;()&lt;br&gt;&lt;/span&gt;&lt;span style=&quot;color:#e8ba36;&quot;&gt;   &lt;/span&gt;res := &lt;span style=&quot;color:#ffc66d;&quot;&gt;make&lt;/span&gt;&lt;span style=&quot;color:#e8ba36;&quot;&gt;([]&lt;/span&gt;&lt;span style=&quot;color:#cc7832;&quot;&gt;int, &lt;/span&gt;&lt;span style=&quot;color:#6897bb;&quot;&gt;0&lt;/span&gt;&lt;span style=&quot;color:#e8ba36;&quot;&gt;)&lt;br&gt;&lt;/span&gt;&lt;span style=&quot;color:#e8ba36;&quot;&gt;   &lt;/span&gt;flagPop := &lt;span style=&quot;color:#ffc66d;&quot;&gt;make&lt;/span&gt;&lt;span style=&quot;color:#e8ba36;&quot;&gt;(&lt;/span&gt;&lt;span style=&quot;color:#cc7832;&quot;&gt;map&lt;/span&gt;&lt;span style=&quot;color:#e8ba36;&quot;&gt;[&lt;/span&gt;*&lt;span style=&quot;color:#6fafbd;&quot;&gt;TreeNode&lt;/span&gt;&lt;span style=&quot;color:#e8ba36;&quot;&gt;]&lt;/span&gt;&lt;span style=&quot;color:#cc7832;&quot;&gt;bool&lt;/span&gt;&lt;span style=&quot;color:#e8ba36;&quot;&gt;)&lt;br&gt;&lt;/span&gt;&lt;span style=&quot;color:#e8ba36;&quot;&gt;   &lt;/span&gt;&lt;span style=&quot;color:#cc7832;&quot;&gt;for &lt;/span&gt;!st.&lt;span style=&quot;color:#b09d79;&quot;&gt;IsEmpty&lt;/span&gt;&lt;span style=&quot;color:#e8ba36;&quot;&gt;() &lt;/span&gt;|| root != &lt;span style=&quot;color:#cc7832;&quot;&gt;nil &lt;/span&gt;&lt;span style=&quot;color:#54a857;&quot;&gt;{&lt;br&gt;&lt;/span&gt;&lt;span style=&quot;color:#54a857;&quot;&gt;      &lt;/span&gt;&lt;span style=&quot;color:#808080;&quot;&gt;//&lt;/span&gt;&lt;span style=&quot;color:#808080;font-family:&#39;Menlo-Regular&#39;,monospace;&quot;&gt;将最左所有节点入栈&lt;br&gt;&lt;/span&gt;&lt;span style=&quot;color:#808080;font-family:&#39;Menlo-Regular&#39;,monospace;&quot;&gt;      &lt;/span&gt;&lt;span style=&quot;color:#cc7832;&quot;&gt;for &lt;/span&gt;root != &lt;span style=&quot;color:#cc7832;&quot;&gt;nil &lt;/span&gt;&lt;span style=&quot;color:#359ff4;&quot;&gt;{&lt;br&gt;&lt;/span&gt;&lt;span style=&quot;color:#359ff4;&quot;&gt;         &lt;/span&gt;st.&lt;span style=&quot;color:#b09d79;&quot;&gt;Push&lt;/span&gt;&lt;span style=&quot;color:#e8ba36;&quot;&gt;(&lt;/span&gt;root&lt;span style=&quot;color:#e8ba36;&quot;&gt;)&lt;br&gt;&lt;/span&gt;&lt;span style=&quot;color:#e8ba36;&quot;&gt;         &lt;/span&gt;root = root.Left&lt;br&gt;      &lt;span style=&quot;color:#359ff4;&quot;&gt;}&lt;br&gt;&lt;/span&gt;&lt;span style=&quot;color:#359ff4;&quot;&gt;      &lt;/span&gt;nodeI&lt;span style=&quot;color:#cc7832;&quot;&gt;, &lt;/span&gt;_ := st.&lt;span style=&quot;color:#b09d79;&quot;&gt;Pop&lt;/span&gt;&lt;span style=&quot;color:#e8ba36;&quot;&gt;()&lt;br&gt;&lt;/span&gt;&lt;span style=&quot;color:#e8ba36;&quot;&gt;      &lt;/span&gt;node := nodeI.&lt;span style=&quot;color:#e8ba36;&quot;&gt;(&lt;/span&gt;*&lt;span style=&quot;color:#6fafbd;&quot;&gt;TreeNode&lt;/span&gt;&lt;span style=&quot;color:#e8ba36;&quot;&gt;)&lt;br&gt;&lt;/span&gt;&lt;span style=&quot;color:#e8ba36;&quot;&gt;      &lt;/span&gt;_&lt;span style=&quot;color:#cc7832;&quot;&gt;, &lt;/span&gt;ok := flagPop&lt;span style=&quot;color:#e8ba36;&quot;&gt;[&lt;/span&gt;node&lt;span style=&quot;color:#e8ba36;&quot;&gt;]&lt;br&gt;&lt;/span&gt;&lt;span style=&quot;color:#e8ba36;&quot;&gt;      &lt;/span&gt;&lt;span style=&quot;color:#cc7832;&quot;&gt;if &lt;/span&gt;!ok &amp;amp;&amp;amp; node.Right != &lt;span style=&quot;color:#cc7832;&quot;&gt;nil &lt;/span&gt;&lt;span style=&quot;color:#359ff4;&quot;&gt;{&lt;/span&gt;&lt;span style=&quot;color:#808080;font-family:&#39;Menlo-Regular&#39;,monospace;&quot;&gt;&lt;br&gt;&lt;/span&gt;&lt;span style=&quot;color:#808080;font-family:&#39;Menlo-Regular&#39;,monospace;&quot;&gt;         &lt;/span&gt;st.&lt;span style=&quot;color:#b09d79;&quot;&gt;Push&lt;/span&gt;&lt;span style=&quot;color:#e8ba36;&quot;&gt;(&lt;/span&gt;node&lt;span style=&quot;color:#e8ba36;&quot;&gt;) &lt;/span&gt;&lt;span style=&quot;color:#808080;&quot;&gt;//&lt;/span&gt;&lt;span style=&quot;color:#808080;font-family:&#39;Menlo-Regular&#39;,monospace;&quot;&gt;再次入站是因为该node存在右子树&lt;br&gt;&lt;/span&gt;&lt;span style=&quot;color:#808080;font-family:&#39;Menlo-Regular&#39;,monospace;&quot;&gt;         &lt;/span&gt;flagPop&lt;span style=&quot;color:#e8ba36;&quot;&gt;[&lt;/span&gt;node&lt;span style=&quot;color:#e8ba36;&quot;&gt;] &lt;/span&gt;= &lt;span style=&quot;color:#cc7832;&quot;&gt;true //&lt;/span&gt;后序遍历的顺序是左右根，&lt;/pre&gt;&lt;pre style=&quot;font-family: &amp;quot;JetBrains Mono&amp;quot;, monospace; font-size: 9.8pt;&quot;&gt;//根比右后弹出，所以再次入栈，用一个flag map标记重新入栈过了下次就不用再重复入了&lt;span style=&quot;color:#cc7832;&quot;&gt;&lt;br&gt;&lt;/span&gt;&lt;span style=&quot;color:#cc7832;&quot;&gt;         &lt;/span&gt;root = node.Right&lt;br&gt;      &lt;span style=&quot;color:#359ff4;&quot;&gt;}&lt;/span&gt;&lt;/pre&gt;&lt;pre style=&quot;font-family: &amp;quot;JetBrains Mono&amp;quot;, monospace; font-size: 9.8pt;&quot;&gt;&lt;span style=&quot;color:#359ff4;&quot;&gt;//root为空代表此时弹出的就是叶子结点，可以作为结果&lt;br&gt;&lt;/span&gt;&lt;span style=&quot;color:#359ff4;&quot;&gt;      &lt;/span&gt;&lt;span style=&quot;color:#cc7832;&quot;&gt;if &lt;/span&gt;root == &lt;span style=&quot;color:#cc7832;&quot;&gt;nil &lt;/span&gt;&lt;span style=&quot;color:#359ff4;&quot;&gt;{&lt;br&gt;&lt;/span&gt;&lt;span style=&quot;color:#359ff4;&quot;&gt;         &lt;/span&gt;res = &lt;span style=&quot;color:#cc7832;&quot;&gt;append&lt;/span&gt;&lt;span style=&quot;color:#e8ba36;&quot;&gt;(&lt;/span&gt;res&lt;span style=&quot;color:#cc7832;&quot;&gt;, &lt;/span&gt;node.Val&lt;span style=&quot;color:#e8ba36;&quot;&gt;)&lt;br&gt;&lt;/span&gt;&lt;span style=&quot;color:#e8ba36;&quot;&gt;      &lt;/span&gt;&lt;span style=&quot;color:#359ff4;&quot;&gt;}&lt;br&gt;&lt;/span&gt;&lt;span style=&quot;color:#359ff4;&quot;&gt;&lt;br&gt;&lt;/span&gt;&lt;span style=&quot;color:#359ff4;&quot;&gt;   &lt;/span&gt;&lt;span style=&quot;color:#54a857;&quot;&gt;}&lt;br&gt;&lt;/span&gt;&lt;span style=&quot;color:#54a857;&quot;&gt;   &lt;/span&gt;&lt;span style=&quot;color:#cc7832;&quot;&gt;return &lt;/span&gt;res&lt;br&gt;&lt;span style=&quot;color:#e8ba36;&quot;&gt;}&lt;br&gt;&lt;/span&gt;&lt;/pre&gt;&lt;/pre&gt;" style="text;whiteSpace=wrap;html=1;fillColor=#f5f5f5;fontColor=#333333;strokeColor=#666666;" vertex="1" parent="1">
          <mxGeometry x="1020" y="85" width="510" height="545" as="geometry" />
        </mxCell>
        <mxCell id="UdQqgkTy1JXmJy_V9cbN-4" value="&lt;pre style=&quot;background-color:#2b2b2b;color:#a9b7c6;font-family:&#39;JetBrains Mono&#39;,monospace;font-size:9.8pt;&quot;&gt;&lt;span style=&quot;color:#cc7832;&quot;&gt;func &lt;/span&gt;&lt;span style=&quot;color:#ffc66d;&quot;&gt;postOrder&lt;/span&gt;&lt;span style=&quot;color:#e8ba36;&quot;&gt;(&lt;/span&gt;root *&lt;span style=&quot;color:#6fafbd;&quot;&gt;TreeNode&lt;/span&gt;&lt;span style=&quot;color:#cc7832;&quot;&gt;, &lt;/span&gt;output *&lt;span style=&quot;color:#e8ba36;&quot;&gt;[]&lt;/span&gt;&lt;span style=&quot;color:#cc7832;&quot;&gt;int&lt;/span&gt;&lt;span style=&quot;color:#e8ba36;&quot;&gt;) {&lt;br&gt;&lt;/span&gt;&lt;span style=&quot;color:#e8ba36;&quot;&gt;   &lt;/span&gt;&lt;span style=&quot;color:#cc7832;&quot;&gt;if &lt;/span&gt;root == &lt;span style=&quot;color:#cc7832;&quot;&gt;nil &lt;/span&gt;&lt;span style=&quot;color:#54a857;&quot;&gt;{&lt;br&gt;&lt;/span&gt;&lt;span style=&quot;color:#54a857;&quot;&gt;      &lt;/span&gt;&lt;span style=&quot;color:#cc7832;&quot;&gt;return&lt;br&gt;&lt;/span&gt;&lt;span style=&quot;color:#cc7832;&quot;&gt;   &lt;/span&gt;&lt;span style=&quot;color:#54a857;&quot;&gt;}&lt;br&gt;&lt;/span&gt;&lt;span style=&quot;color:#54a857;&quot;&gt;   &lt;/span&gt;&lt;span style=&quot;color:#cc7832;&quot;&gt;if &lt;/span&gt;root.Left != &lt;span style=&quot;color:#cc7832;&quot;&gt;nil &lt;/span&gt;&lt;span style=&quot;color:#54a857;&quot;&gt;{&lt;br&gt;&lt;/span&gt;&lt;span style=&quot;color:#54a857;&quot;&gt;      &lt;/span&gt;&lt;span style=&quot;color:#b09d79;&quot;&gt;postOrder&lt;/span&gt;&lt;span style=&quot;color:#e8ba36;&quot;&gt;(&lt;/span&gt;root.Left&lt;span style=&quot;color:#cc7832;&quot;&gt;, &lt;/span&gt;output&lt;span style=&quot;color:#e8ba36;&quot;&gt;) //这个就是将最左侧节点依次入栈&lt;br&gt;&lt;/span&gt;&lt;span style=&quot;color:#e8ba36;&quot;&gt;   &lt;/span&gt;&lt;span style=&quot;color:#54a857;&quot;&gt;}&lt;br&gt;&lt;/span&gt;&lt;span style=&quot;color:#54a857;&quot;&gt;   &lt;/span&gt;&lt;span style=&quot;color:#cc7832;&quot;&gt;if &lt;/span&gt;root.Right != &lt;span style=&quot;color:#cc7832;&quot;&gt;nil &lt;/span&gt;&lt;span style=&quot;color:#54a857;&quot;&gt;{&lt;br&gt;&lt;/span&gt;&lt;span style=&quot;color:#54a857;&quot;&gt;      &lt;/span&gt;&lt;span style=&quot;color:#b09d79;&quot;&gt;postOrder&lt;/span&gt;&lt;span style=&quot;color:#e8ba36;&quot;&gt;(&lt;/span&gt;root.Right&lt;span style=&quot;color:#cc7832;&quot;&gt;, &lt;/span&gt;output&lt;span style=&quot;color:#e8ba36;&quot;&gt;) //当最左侧最后一个节点没有左子树的时候，就要判断有没有右子树了&lt;br&gt;&lt;/span&gt;&lt;span style=&quot;color:#e8ba36;&quot;&gt;   &lt;/span&gt;&lt;span style=&quot;color:#54a857;&quot;&gt;} //右子树存在的时候，就变成和上面一样的操作了，也要入栈&lt;br&gt;&lt;/span&gt;&lt;span style=&quot;color:#54a857;&quot;&gt;   &lt;/span&gt;*output = &lt;span style=&quot;color:#cc7832;&quot;&gt;append&lt;/span&gt;&lt;span style=&quot;color:#e8ba36;&quot;&gt;(&lt;/span&gt;*output&lt;span style=&quot;color:#cc7832;&quot;&gt;, &lt;/span&gt;root.Val&lt;span style=&quot;color:#e8ba36;&quot;&gt;) &lt;br&gt;&lt;/span&gt;&lt;span style=&quot;color:#e8ba36;&quot;&gt;}&lt;/span&gt;&lt;/pre&gt;" style="text;whiteSpace=wrap;html=1;" vertex="1" parent="1">
          <mxGeometry x="1570" y="85" width="690" height="240" as="geometry" />
        </mxCell>
        <mxCell id="UdQqgkTy1JXmJy_V9cbN-5" value="递归实现" style="text;strokeColor=none;fillColor=none;html=1;fontSize=24;fontStyle=1;verticalAlign=middle;align=center;" vertex="1" parent="1">
          <mxGeometry x="1750" y="20" width="100" height="40" as="geometry" />
        </mxCell>
        <mxCell id="UdQqgkTy1JXmJy_V9cbN-6" value="栈实现" style="text;strokeColor=none;fillColor=none;html=1;fontSize=24;fontStyle=1;verticalAlign=middle;align=center;" vertex="1" parent="1">
          <mxGeometry x="1210" y="20" width="100" height="40" as="geometry" />
        </mxCell>
        <mxCell id="UdQqgkTy1JXmJy_V9cbN-9" value="&lt;font style=&quot;font-size: 23px;&quot;&gt;二叉树后序遍历&lt;/font&gt;" style="rounded=1;whiteSpace=wrap;html=1;fillColor=#dae8fc;strokeColor=default;gradientColor=none;shadow=1;sketch=1;curveFitting=1;jiggle=2;" vertex="1" parent="1">
          <mxGeometry x="495" y="-150" width="510" height="60" as="geometry" />
        </mxCell>
      </root>
    </mxGraphModel>
  </diagram>
</mxfile>
